<svg width="512" height="512" viewBox="0 0 512 512" fill="none" xmlns="http://www.w3.org/2000/svg">
<path d="M196.423 47.0143C128.319 52.0584 70.4222 56.6973 67.7001 57.2405C60.0678 58.6029 53.1247 63.785 49.8599 70.6053L47 76.6066L47.2757 219.636L47.6805 362.666L52.0393 371.529C54.4944 376.436 71.1113 399.346 89.2271 422.928C125.054 469.42 127.638 472.016 141.257 473.378C145.211 473.783 174.905 472.421 207.053 470.515C239.339 468.472 291.094 465.333 322.157 463.566C454.825 455.504 448.011 456.185 455.635 449.64C465.171 441.734 464.49 454.685 464.895 280.847C465.171 133.455 465.033 123.78 462.854 119.279C460.269 114.235 455.635 110.691 395.154 68.1479C354.702 39.7886 351.842 38.2883 333.717 38.0124C326.231 37.7451 264.39 41.8322 196.423 47.0143Z" fill="white"/>
<path d="M199.336 58.0441L199.337 58.044C231.629 55.5852 262.466 53.3862 286.118 51.8336C309.789 50.2799 326.228 49.3763 329.756 49.5021V49.5022L329.765 49.5024C338.352 49.6329 343.263 50.0517 350.818 53.764C358.419 57.4986 368.676 64.5584 387.91 78.0243C416.649 98.2131 432.111 109.142 440.696 115.622C449.286 122.107 450.928 124.095 452.106 126.39C452.589 127.386 452.979 128.699 453.277 132.324C453.575 135.955 453.777 141.86 453.906 152.018C454.165 172.328 454.133 209.588 454.002 279.528C453.977 290.128 453.956 299.997 453.937 309.185C453.808 371.505 453.744 402.551 452.856 418.649C452.346 427.904 451.565 432.14 450.389 434.531C449.811 435.706 449.135 436.441 448.32 437.116C447.935 437.435 447.521 437.739 447.065 438.074L446.963 438.149C446.469 438.512 445.932 438.909 445.356 439.387L445.35 439.392C445.001 439.691 444.686 439.972 444.39 440.236C443.12 441.367 442.187 442.199 440.326 442.928C438.004 443.836 434.247 444.573 426.722 445.359C412.955 446.797 386.733 448.386 333.995 451.581C329.145 451.875 324.07 452.183 318.76 452.505C289.241 454.183 240.06 457.161 209.379 459.1C194.106 460.005 179.417 460.78 168.078 461.281C162.407 461.531 157.576 461.713 153.929 461.809C150.267 461.904 147.831 461.911 146.925 461.819L146.924 461.818C143.696 461.496 141.17 461.104 138.651 460.029C136.133 458.954 133.592 457.183 130.37 454.058C123.91 447.793 114.808 436.179 97.7752 414.104C89.1699 402.917 80.9211 391.89 74.5328 383.079C71.3384 378.674 68.6105 374.824 66.5362 371.785C64.4573 368.741 63.0505 366.534 62.4814 365.399C62.481 365.398 62.4805 365.397 62.4801 365.396L58.3828 357.075L57.9983 221.438L57.9983 221.438L57.7366 85.7991L60.4124 80.1918C60.4124 80.1917 60.4125 80.1915 60.4126 80.1913C63.4537 73.8472 69.9335 69.0132 77.0566 67.7434L77.0566 67.7435L77.0651 67.7418C77.3613 67.6828 78.4748 67.5597 80.3666 67.3794C82.2429 67.2005 84.8555 66.9677 88.1214 66.6877C94.6531 66.1278 103.794 65.3797 114.878 64.498C137.044 62.7347 166.977 60.4375 199.336 58.0441ZM344.968 74.9563L344.966 74.9555C340.681 73.0453 335.109 72.0752 324.962 72.027C314.814 71.9789 300.042 72.8539 277.331 74.6663L277.331 74.6663C256.36 76.3519 221.932 78.9375 200.962 80.3611L200.96 80.3613C146.145 84.3049 118.949 86.2777 105.46 87.8153C102.086 88.1999 99.5613 88.5581 97.6724 88.9145C95.789 89.2699 94.5133 89.6278 93.6516 90.0207C92.7826 90.4169 92.2878 90.8707 92.0418 91.4383C91.828 91.9317 91.8297 92.4666 91.8314 92.952C91.8315 92.9937 91.8316 93.035 91.8316 93.0759C91.8316 93.2479 91.9106 93.4048 91.9686 93.5059C92.0367 93.6246 92.1302 93.7555 92.2403 93.8944C92.4615 94.1735 92.7794 94.5216 93.1765 94.9264C93.9726 95.738 95.1166 96.8073 96.5173 98.0606C99.3204 100.569 103.172 103.832 107.373 107.279C115.771 114.17 125.588 121.815 131.237 125.644L131.239 125.645C134.005 127.493 138.851 129.457 142.149 129.983L142.154 129.984C142.411 130.021 142.897 130.038 143.566 130.041C144.245 130.043 145.142 130.032 146.24 130.006C148.436 129.956 151.447 129.851 155.153 129.699C162.564 129.396 172.764 128.904 184.808 128.279C208.895 127.03 240.363 125.251 271.664 123.391C302.966 121.531 334.102 119.59 357.527 118.016C369.239 117.23 379.024 116.535 385.939 115.988C389.396 115.715 392.138 115.478 394.045 115.285C394.998 115.189 395.747 115.103 396.274 115.029C396.536 114.992 396.751 114.957 396.91 114.923C396.989 114.907 397.062 114.889 397.125 114.869L397.126 114.869C397.167 114.856 397.274 114.822 397.362 114.747L397.374 114.737L397.385 114.726C397.924 114.187 397.977 113.478 397.712 112.757C397.454 112.057 396.886 111.293 396.092 110.499L396.085 110.492L396.078 110.486C393.142 107.807 381.722 99.5373 370.391 91.6519C364.717 87.7039 359.055 83.8445 354.47 80.8178C349.902 77.8021 346.365 75.5874 344.968 74.9563ZM427.279 154.738L427.277 154.726C426.752 151.304 425.169 147.715 423.277 145.824L423.238 145.785C422.276 144.823 421.494 144.041 419.667 143.547C417.864 143.059 415.044 142.848 409.965 142.905C399.872 143.019 380.668 144.201 342.333 146.561L341.42 146.617C331.397 147.21 319.096 147.949 305.793 148.749C275.624 150.561 240.298 152.684 214.695 154.12L214.693 154.12C188.417 155.671 171.455 156.77 160.769 157.676C155.427 158.128 151.645 158.534 149.05 158.924C147.753 159.119 146.744 159.312 145.98 159.507C145.233 159.698 144.683 159.901 144.328 160.135C143.406 160.702 142.46 161.798 141.657 163.043C140.845 164.302 140.147 165.761 139.746 167.098L139.745 167.099C139.599 167.59 139.48 168.629 139.375 170.184C139.268 171.759 139.173 173.911 139.09 176.663C138.923 182.17 138.801 190.095 138.72 200.649C138.557 221.759 138.557 253.398 138.688 297.262L139.073 422.254L139.073 422.419L139.186 422.541L142.296 425.904L142.302 425.91L142.308 425.916C143.243 426.852 144.569 427.842 145.966 428.679C147.36 429.513 148.853 430.213 150.132 430.55C150.261 430.587 150.442 430.609 150.643 430.626C150.858 430.643 151.13 430.656 151.456 430.665C152.107 430.683 152.987 430.686 154.08 430.675C156.265 430.652 159.312 430.574 163.096 430.446C170.664 430.191 181.189 429.738 193.686 429.145C218.68 427.958 251.563 426.207 284.449 424.339C317.335 422.471 350.226 420.485 375.234 418.829C387.739 418.001 398.274 417.255 405.854 416.647C409.643 416.343 412.696 416.074 414.888 415.846C415.984 415.732 416.868 415.628 417.523 415.534C417.85 415.488 418.124 415.443 418.34 415.401C418.539 415.362 418.716 415.32 418.841 415.271C419.883 414.923 421.06 414.176 422.13 413.271C423.206 412.361 424.207 411.262 424.882 410.183C425.486 409.259 425.916 408.096 426.246 405.112C426.576 402.127 426.811 397.265 426.989 388.903C427.345 372.174 427.474 341.373 427.667 283.409C427.798 249.638 427.798 218.26 427.717 194.936C427.676 183.274 427.616 173.625 427.541 166.696C427.504 163.232 427.463 160.447 427.42 158.43C427.376 156.428 427.33 155.154 427.279 154.738Z" fill="#121212" stroke="black" stroke-width="0.850488"/>
<path d="M199.32 385.408V379.316L220.894 374.24V203.169L199.32 198.22V192.129H277.114C290.228 192.129 301.819 194.244 311.887 198.474C322.039 202.62 329.95 208.796 335.618 217.002C341.371 225.124 344.248 235.15 344.248 247.079C344.248 259.516 340.61 269.753 333.334 277.791C326.143 285.828 315.99 291.454 302.876 294.669L355.797 374.24L383.589 379.316V385.408H327.242L271.657 297.969H249.448V374.24L278.003 379.316V385.408H199.32ZM249.448 287.69H264.17C274.491 287.69 282.614 286.463 288.536 284.009C294.543 281.556 299.408 278.256 303.13 274.11C306.853 269.965 309.476 265.354 310.998 260.278C312.606 255.117 313.41 249.871 313.41 244.541C313.41 234.473 311.379 226.182 307.318 219.667C303.257 213.153 297.631 208.457 290.439 205.581C287.563 204.396 284.39 203.592 280.921 203.169C277.453 202.662 273.095 202.408 267.85 202.408H249.448V287.69Z" fill="#121212"/>
</svg>
